<?xml version="1.0" standalone="no"?>
<!DOCTYPE svg PUBLIC "-//W3C//DTD SVG 20010904//EN"
 "http://www.w3.org/TR/2001/REC-SVG-20010904/DTD/svg10.dtd">
<svg version="1.0" xmlns="http://www.w3.org/2000/svg"
 width="1798.000000pt" height="242.000000pt" viewBox="0 0 1798.000000 242.000000"
 preserveAspectRatio="xMidYMid meet">

<g transform="translate(0.000000,242.000000) scale(0.100000,-0.100000)"
fill="#fff" stroke="none">
<path d="M19 2404 c-12 -14 -14 -210 -17 -1181 l-2 -1164 29 -30 29 -29 882 0
882 0 29 29 29 29 0 1154 c0 909 -3 1158 -13 1178 l-13 25 -911 3 c-838 2
-912 1 -924 -14z m1813 -11 c17 -15 18 -65 18 -1178 0 -890 -3 -1164 -12
-1173 -17 -17 -1779 -17 -1796 0 -9 9 -12 283 -12 1172 0 1065 1 1161 17 1178
15 17 56 18 891 18 801 0 877 -1 894 -17z"/>
<path d="M129 2311 l-24 -19 0 -1050 c0 -1018 1 -1051 19 -1071 l19 -21 813 0
813 0 15 22 c14 20 16 138 16 1069 l0 1048 -26 20 c-27 21 -33 21 -824 21
-771 0 -799 -1 -821 -19z m1641 -30 c7 -13 10 -357 10 -1043 0 -910 -2 -1026
-16 -1046 l-15 -22 -794 0 c-708 0 -795 2 -809 16 -14 14 -16 123 -16 1053 0
793 3 1040 12 1049 9 9 204 12 815 12 783 0 803 0 813 -19z"/>
<path d="M1008 2217 c-40 -20 -78 -31 -124 -35 -61 -5 -65 -6 -59 -26 63 -190
80 -338 72 -635 -4 -129 -9 -237 -13 -240 -3 -3 -163 -7 -355 -9 -192 -2 -349
-5 -349 -8 0 -3 15 -23 33 -46 30 -37 32 -45 32 -114 0 -41 1 -74 2 -74 1 0
42 17 90 39 165 72 345 122 494 138 l59 6 0 -29 c-1 -206 -37 -561 -76 -744
-13 -63 -24 -118 -24 -122 0 -5 13 -8 29 -8 40 0 109 -26 148 -56 19 -14 36
-24 38 -22 3 2 -4 47 -15 99 -37 186 -53 474 -42 773 l4 119 206 -6 c182 -5
312 -19 506 -53 l38 -7 -18 29 c-15 22 -19 47 -19 121 0 79 -2 92 -15 87 -79
-30 -230 -75 -283 -84 -37 -7 -142 -13 -234 -13 l-168 -2 -3 135 c-7 290 25
580 82 748 14 39 24 71 23 71 -1 -1 -28 -15 -59 -32z"/>
<path d="M437 2060 c-267 -67 -352 -396 -150 -580 168 -154 434 -97 528 113
57 124 32 266 -64 370 -71 77 -214 121 -314 97z m210 -51 c219 -104 236 -416
31 -545 -158 -100 -359 -42 -450 129 -19 35 -23 58 -23 137 0 86 3 100 29 148
63 113 184 177 311 164 22 -2 68 -17 102 -33z"/>
<path d="M603 1803 c-62 -192 -60 -173 -19 -173 l35 0 3 -62 c2 -50 6 -63 21
-66 15 -3 17 5 17 62 l0 66 34 0 c19 0 37 3 39 8 2 4 -17 71 -42 150 l-46 143
-42 -128z"/>
<path d="M342 1782 c-24 -75 -43 -140 -43 -144 1 -5 17 -8 36 -8 l35 0 0 -65
c0 -58 2 -65 20 -65 18 0 20 7 20 65 l0 65 35 0 c19 0 35 3 35 7 0 15 -85 283
-90 283 -3 0 -24 -62 -48 -138z"/>
<path d="M1275 1819 l-85 -70 0 -105 0 -104 -50 0 c-27 0 -50 -4 -50 -10 0 -6
108 -10 305 -10 197 0 305 4 305 10 0 6 -18 10 -40 10 l-40 0 0 90 0 90 30 0
c17 0 30 5 30 10 0 6 -36 10 -88 10 l-89 0 -72 74 -72 74 -84 -69z m152 -31
l63 -62 0 -93 0 -93 -140 0 -140 0 0 99 0 99 68 55 c37 31 71 56 77 56 5 1 38
-27 72 -61z m173 -158 l0 -90 -40 0 -40 0 0 90 0 90 40 0 40 0 0 -90z"/>
<path d="M1282 1683 l3 -68 58 -3 57 -3 0 71 0 70 -60 0 -61 0 3 -67z m96 0
c-3 -46 -4 -48 -33 -48 -29 0 -30 2 -33 48 l-3 47 36 0 36 0 -3 -47z"/>
<path d="M1297 1053 c-76 -110 -78 -114 -75 -195 l3 -72 45 0 45 -1 0 -55 0
-55 -72 -3 -73 -3 0 -59 0 -59 73 -3 c70 -3 72 -4 75 -30 2 -20 -4 -32 -27
-49 -25 -18 -31 -30 -31 -61 l0 -38 110 0 110 0 0 46 c0 41 -3 46 -30 55 -25
9 -30 16 -30 45 l0 34 65 0 65 0 0 -35 0 -35 53 0 c78 0 92 14 92 92 0 75 -26
127 -99 198 l-46 44 0 -72 0 -72 -65 0 -65 0 0 60 0 60 45 0 45 0 0 76 0 75
-70 95 c-38 52 -74 94 -79 94 -5 0 -34 -35 -64 -77z m132 -40 c60 -85 62 -90
59 -143 l-3 -55 -42 -3 -43 -3 0 -169 0 -169 31 -16 c22 -12 29 -22 27 -38 -3
-20 -9 -22 -90 -25 -86 -3 -88 -2 -88 20 0 16 10 30 30 42 l30 17 -2 167 -3
167 -44 5 -45 5 3 65 c2 60 6 71 54 142 29 43 55 77 58 78 3 0 34 -39 68 -87z
m227 -361 c19 -44 22 -116 4 -136 -9 -12 -25 -16 -49 -14 l-36 3 -3 109 c-4
141 1 152 40 106 16 -19 36 -50 44 -68z m-341 -42 l0 -35 -62 -3 -63 -3 0 41
0 41 63 -3 62 -3 0 -35z m235 0 l0 -40 -65 0 -65 0 0 40 0 40 65 0 65 0 0 -40z"/>
<path d="M559 1044 c-53 -123 -52 -119 -34 -154 l17 -33 63 63 c38 38 61 68
57 75 -4 7 -24 31 -44 55 l-37 43 -22 -49z m61 -31 l21 -27 -46 -45 c-36 -36
-47 -43 -54 -32 -9 14 -7 22 23 94 19 44 28 46 56 10z"/>
<path d="M343 1003 c-18 -9 -33 -20 -33 -24 0 -4 34 -34 75 -66 62 -47 74 -61
68 -78 -11 -35 -5 -59 22 -78 24 -18 25 -22 24 -125 0 -79 -5 -117 -18 -147
l-18 -40 -17 36 c-9 20 -28 47 -42 60 -25 24 -26 24 -40 5 -8 -11 -14 -29 -14
-40 1 -30 34 -98 59 -121 19 -17 21 -26 16 -67 -10 -70 1 -76 49 -30 22 21 58
49 78 61 87 52 119 123 100 224 -8 39 -7 47 5 47 8 0 28 13 44 29 35 35 40 85
9 101 -19 10 -19 11 5 47 17 24 25 50 25 79 0 77 -4 78 -88 23 -42 -28 -78
-52 -80 -53 -1 -2 21 -19 50 -37 l53 -34 -57 -9 c-79 -11 -86 -35 -29 -88 22
-21 41 -43 41 -49 0 -19 -85 -159 -95 -156 -6 2 -11 60 -13 139 -2 124 -1 136
18 153 43 39 16 99 -44 97 -27 -1 -36 3 -36 15 0 9 -5 45 -11 80 -11 62 -12
63 -43 62 -17 0 -46 -8 -63 -16z m81 -25 c3 -13 6 -34 6 -47 l0 -23 -37 28
c-21 15 -40 29 -43 32 -8 6 32 32 51 32 9 0 19 -10 23 -22z m294 -113 c-3 -25
-11 -52 -18 -60 -10 -12 -16 -11 -46 8 -18 12 -34 27 -34 32 1 10 77 62 94 64
5 1 6 -19 4 -44z m-183 -45 c8 -27 -12 -52 -39 -48 -21 3 -32 28 -22 54 8 22
54 18 61 -6z m144 -81 c35 -12 39 -33 15 -67 -21 -30 -33 -28 -82 14 -58 49
-57 52 24 63 6 0 25 -4 43 -10z m-43 -243 c-7 -46 -41 -97 -77 -117 -32 -17
-23 28 22 110 46 82 66 85 55 7z m-200 -43 c8 -29 -2 -56 -17 -47 -19 11 -50
91 -42 110 6 15 9 14 30 -12 13 -16 26 -39 29 -51z m78 -9 c11 -41 -4 -90 -35
-120 -16 -15 -31 -26 -33 -23 -6 6 46 169 55 169 4 0 10 -12 13 -26z"/>
<path d="M275 862 c-9 -10 -5 -152 5 -152 15 0 124 42 138 53 29 23 8 48 -65
77 -40 15 -75 25 -78 22z m89 -52 c25 -10 46 -22 46 -25 0 -6 -87 -45 -101
-45 -5 0 -9 20 -9 45 0 25 4 45 9 45 5 0 30 -9 55 -20z"/>
<path d="M382 687 c-29 -29 -52 -55 -52 -58 0 -7 73 -59 82 -59 6 0 56 109 58
130 8 57 -23 53 -88 -13z m47 -37 c-22 -51 -34 -57 -53 -27 -9 13 -3 24 29 57
22 22 41 36 43 31 2 -5 -7 -33 -19 -61z"/>
<path d="M5391 2171 c-26 -62 -26 -61 3 -61 16 0 38 17 71 55 l47 55 -50 0
-50 0 -21 -49z"/>
<path d="M4676 2068 c-54 -15 -109 -74 -136 -144 -19 -51 -21 -74 -18 -169 3
-95 8 -117 30 -161 33 -62 75 -100 130 -115 95 -25 188 20 227 111 12 28 21
56 19 61 -2 6 -22 18 -45 29 l-41 18 -6 -33 c-17 -89 -114 -125 -175 -65 -37
37 -55 117 -49 210 8 112 51 170 127 170 35 0 86 -40 95 -74 6 -25 6 -25 51
-9 25 8 45 19 45 25 0 6 -12 32 -26 58 -42 77 -136 114 -228 88z"/>
<path d="M5356 2068 c-55 -15 -119 -82 -142 -149 -24 -73 -24 -215 0 -288 37
-109 140 -174 248 -156 81 14 131 55 170 140 19 43 23 66 23 160 0 94 -4 118
-24 163 -29 64 -87 116 -146 131 -51 13 -76 13 -129 -1z m145 -115 c17 -15 38
-42 45 -60 16 -38 18 -172 4 -225 -14 -50 -70 -98 -116 -98 -86 0 -135 62
-142 179 -5 96 10 155 53 198 44 44 107 47 156 6z"/>
<path d="M7326 2068 c-54 -15 -109 -74 -136 -144 -19 -51 -21 -74 -18 -169 3
-95 8 -117 30 -161 33 -62 75 -100 130 -115 95 -25 188 20 227 111 12 28 21
56 19 61 -2 6 -22 18 -45 29 l-41 18 -6 -33 c-17 -89 -114 -125 -175 -65 -37
37 -55 117 -49 210 8 112 51 170 127 170 35 0 86 -40 95 -74 6 -25 6 -25 51
-9 25 8 45 19 45 25 0 6 -12 32 -26 58 -42 77 -136 114 -228 88z"/>
<path d="M8316 2068 c-55 -15 -119 -82 -142 -149 -25 -74 -25 -215 0 -288 37
-109 141 -174 248 -156 81 14 131 55 170 140 19 43 23 66 23 160 0 94 -4 118
-24 163 -29 64 -87 116 -146 131 -51 13 -76 13 -129 -1z m148 -119 c43 -37 56
-79 56 -179 -1 -127 -50 -200 -136 -200 -36 0 -49 6 -78 35 -41 40 -56 87 -56
170 0 83 16 133 55 172 28 28 40 33 79 33 36 0 52 -6 80 -31z"/>
<path d="M10936 2068 c-54 -15 -109 -74 -136 -144 -19 -51 -21 -74 -18 -169 3
-95 8 -117 30 -161 33 -62 75 -100 130 -115 95 -25 188 20 227 111 12 28 21
56 19 61 -2 6 -22 18 -45 29 l-41 18 -6 -33 c-17 -89 -114 -125 -175 -65 -37
37 -55 117 -49 210 8 112 51 170 127 170 35 0 86 -40 95 -74 6 -25 6 -25 51
-9 25 8 45 19 45 25 0 6 -12 32 -26 58 -42 77 -136 114 -228 88z"/>
<path d="M2130 1775 l0 -295 50 0 50 0 0 125 0 125 100 0 100 0 0 50 0 50
-100 0 -100 0 0 70 0 70 115 0 115 0 0 50 0 50 -165 0 -165 0 0 -295z"/>
<path d="M2550 1878 c0 -106 4 -219 10 -251 17 -107 70 -150 185 -151 88 -1
131 21 163 84 21 42 22 55 22 277 l0 233 -45 0 -45 0 0 -215 c0 -269 -6 -285
-99 -285 -52 0 -86 35 -95 96 -3 26 -6 127 -6 225 l0 179 -45 0 -45 0 0 -192z"/>
<path d="M3050 1775 l0 -295 45 0 45 0 2 193 3 192 98 -192 97 -193 45 0 45 0
0 295 0 295 -40 0 -40 0 -2 -197 -3 -198 -100 198 -100 197 -47 0 -48 0 0
-295z"/>
<path d="M3540 1775 l0 -295 108 0 c126 0 170 11 217 51 52 46 75 119 75 238
0 119 -19 189 -66 240 -43 49 -89 61 -228 61 l-106 0 0 -295z m258 170 c50
-42 68 -178 37 -283 -21 -69 -42 -82 -132 -82 l-73 0 0 195 0 195 69 0 c60 0
74 -4 99 -25z"/>
<path d="M4146 1988 c-14 -46 -57 -179 -95 -296 l-69 -213 51 3 51 3 18 63 19
63 101 -3 102 -3 20 -62 20 -63 48 0 c26 0 48 3 48 8 0 4 -42 135 -93 292
l-93 285 -51 3 -51 3 -26 -83z m140 -276 c-2 -2 -33 -2 -69 0 l-65 3 29 95
c16 52 32 102 35 110 3 8 21 -34 39 -95 19 -60 32 -111 31 -113z"/>
<path d="M5020 1775 l0 -295 45 0 45 0 0 295 0 295 -45 0 -45 0 0 -295z"/>
<path d="M5740 1775 l0 -295 45 0 45 0 2 193 3 192 98 -192 97 -193 45 0 45 0
0 295 0 295 -40 0 -40 0 -2 -197 -3 -198 -100 198 -100 197 -47 0 -48 0 0
-295z"/>
<path d="M6420 1775 l0 -295 45 0 45 0 1 233 1 232 43 -208 c24 -115 46 -219
49 -233 6 -21 12 -24 51 -24 25 0 45 1 45 3 0 15 91 451 95 455 3 3 5 -99 5
-226 l0 -232 45 0 45 0 0 295 0 295 -73 0 -74 0 -43 -205 c-24 -113 -45 -203
-47 -201 -3 2 -24 94 -47 203 l-42 198 -72 3 -72 3 0 -296z"/>
<path d="M6990 1775 l0 -295 45 0 45 0 0 295 0 295 -45 0 -45 0 0 -295z"/>
<path d="M7680 1776 l0 -296 50 0 50 0 0 125 0 125 33 0 c43 0 61 -20 132
-147 l57 -103 55 0 c48 0 54 2 49 18 -17 43 -111 203 -132 223 l-23 22 42 21
c56 28 82 75 81 146 0 30 -8 69 -18 87 -28 56 -63 67 -228 71 l-148 4 0 -296z
m280 174 c11 -11 20 -33 20 -50 0 -53 -29 -70 -120 -70 l-80 0 0 70 0 70 80 0
c67 0 83 -3 100 -20z"/>
<path d="M8700 1775 l0 -295 50 0 50 0 0 125 0 125 100 0 100 0 0 50 0 50
-100 0 -100 0 0 70 0 70 115 0 115 0 0 50 0 50 -165 0 -165 0 0 -295z"/>
<path d="M9120 1775 l0 -295 45 0 45 0 0 295 0 295 -45 0 -45 0 0 -295z"/>
<path d="M9310 1775 l0 -295 45 0 45 0 2 193 3 192 98 -192 97 -193 45 0 45 0
0 295 0 295 -40 0 -40 0 -2 -197 -3 -198 -100 198 -100 197 -47 0 -48 0 0
-295z"/>
<path d="M9916 1988 c-14 -46 -57 -179 -95 -296 l-69 -213 51 3 51 3 18 63 19
63 101 -3 102 -3 20 -62 20 -63 48 0 c26 0 48 3 48 8 0 4 -42 135 -93 292
l-93 285 -51 3 -51 3 -26 -83z m140 -276 c-2 -2 -33 -2 -69 0 l-65 3 29 95
c16 52 32 102 35 110 3 8 21 -34 39 -95 19 -60 32 -111 31 -113z"/>
<path d="M10290 1775 l0 -295 45 0 45 0 2 193 3 192 98 -192 97 -193 45 0 45
0 0 295 0 295 -40 0 -40 0 -2 -197 -3 -198 -100 198 -100 197 -47 0 -48 0 0
-295z"/>
<path d="M11280 1775 l0 -295 45 0 45 0 0 295 0 295 -45 0 -45 0 0 -295z"/>
<path d="M11470 1775 l0 -295 185 0 185 0 0 50 0 50 -140 0 -140 0 0 80 0 80
125 0 125 0 0 45 0 45 -125 0 -125 0 0 70 0 70 135 0 135 0 0 50 0 50 -180 0
-180 0 0 -295z"/>
<path d="M11930 1776 l0 -296 50 0 50 0 0 125 0 125 33 0 c43 0 61 -20 132
-147 l57 -103 55 0 c48 0 54 2 49 18 -17 43 -111 203 -132 223 l-23 22 42 21
c56 28 82 75 81 146 0 30 -8 69 -18 87 -28 56 -63 67 -228 71 l-148 4 0 -296z
m280 174 c11 -11 20 -33 20 -50 0 -53 -29 -70 -120 -70 l-80 0 0 70 0 70 80 0
c67 0 83 -3 100 -20z"/>
<path d="M12536 1988 c-14 -46 -57 -179 -95 -296 l-69 -213 51 3 51 3 18 63
19 63 101 -3 102 -3 20 -62 20 -63 48 0 c26 0 48 3 48 8 0 4 -42 135 -93 292
l-93 285 -51 3 -51 3 -26 -83z m140 -276 c-2 -2 -33 -2 -69 0 l-65 3 29 95
c16 52 32 102 35 110 3 8 21 -34 39 -95 19 -60 32 -111 31 -113z"/>
<path d="M10675 1241 c-109 -30 -178 -99 -219 -216 -23 -65 -32 -224 -17 -295
37 -179 146 -284 296 -285 165 -1 278 119 306 322 27 203 -52 395 -188 455
-51 22 -134 31 -178 19z m139 -95 c92 -38 146 -150 146 -300 0 -192 -75 -304
-209 -314 -99 -7 -181 54 -218 163 -23 67 -23 219 0 297 40 132 167 202 281
154z"/>
<path d="M14547 1236 c-122 -34 -183 -180 -124 -296 29 -59 67 -83 202 -125
61 -19 123 -44 137 -55 74 -58 53 -178 -38 -216 -76 -32 -190 -6 -232 53 -11
16 -26 51 -33 77 -8 34 -16 46 -26 42 -8 -3 -23 -6 -34 -6 -45 0 -5 -144 57
-202 83 -78 247 -87 342 -18 111 80 117 285 11 361 -18 12 -89 39 -158 60
-146 44 -171 63 -171 132 0 77 52 117 152 117 83 0 137 -42 153 -118 5 -24 11
-32 22 -28 8 3 26 6 39 6 23 0 24 2 18 38 -20 110 -96 177 -211 187 -34 3 -78
-1 -106 -9z"/>
<path d="M15745 1241 c-109 -30 -178 -99 -219 -216 -23 -65 -32 -224 -17 -295
37 -179 146 -284 296 -285 165 -1 278 119 306 322 27 203 -52 395 -188 455
-51 22 -134 31 -178 19z m139 -95 c92 -38 146 -150 146 -300 0 -192 -75 -304
-209 -314 -99 -7 -181 54 -218 163 -23 67 -23 219 0 297 40 132 167 202 281
154z"/>
<path d="M2150 845 l0 -395 40 0 40 0 0 185 0 185 175 0 175 0 0 -185 0 -185
40 0 40 0 0 395 0 395 -40 0 -40 0 0 -165 0 -165 -175 0 -175 0 0 165 0 165
-40 0 -40 0 0 -395z"/>
<path d="M2810 845 l0 -395 245 0 245 0 0 45 0 45 -200 0 -200 0 0 135 0 135
180 0 180 0 0 45 0 45 -180 0 -180 0 0 125 0 125 190 0 190 0 0 45 0 45 -235
0 -235 0 0 -395z"/>
<path d="M3420 845 l0 -395 40 0 40 0 0 175 0 175 75 0 c122 0 134 -11 247
-225 l64 -120 53 -3 53 -3 -68 133 c-45 87 -85 148 -115 179 l-46 47 41 12
c119 36 172 202 103 324 -47 83 -88 95 -324 96 l-163 0 0 -395z m370 290 c43
-22 60 -53 60 -108 0 -111 -43 -137 -224 -137 l-126 0 0 130 0 130 130 0 c97
0 139 -4 160 -15z"/>
<path d="M4080 845 l0 -395 40 0 40 0 2 332 3 333 83 -295 c45 -162 87 -312
93 -332 9 -35 13 -38 47 -38 l37 0 89 315 c50 173 93 321 98 328 4 6 8 -135 8
-315 l0 -328 40 0 40 0 0 395 0 395 -58 0 -57 0 -94 -335 c-52 -184 -97 -333
-100 -330 -4 5 -102 353 -163 583 l-22 82 -63 0 -63 0 0 -395z"/>
<path d="M5012 1208 c-58 -183 -207 -656 -222 -700 l-19 -58 43 0 43 0 35 118
34 117 140 3 140 3 39 -121 38 -120 43 0 c24 0 44 3 44 8 0 4 -58 180 -128
392 l-129 385 -45 3 c-44 3 -47 2 -56 -30z m112 -251 l52 -172 -104 -3 c-58
-1 -107 -1 -109 2 -3 3 11 56 30 118 20 62 44 144 53 183 10 38 20 63 22 56 2
-7 28 -90 56 -184z"/>
<path d="M5440 845 l0 -395 40 0 40 0 2 310 3 309 170 -309 170 -310 42 0 43
0 0 395 0 395 -40 0 -40 0 -2 -311 -3 -310 -170 310 -170 311 -42 0 -43 0 0
-395z"/>
<path d="M6100 845 l0 -397 158 3 c148 4 160 6 213 32 63 30 97 72 131 158 26
66 37 266 19 348 -15 72 -59 157 -96 188 -57 49 -89 56 -262 61 l-163 4 0
-397z m323 291 c44 -19 83 -63 103 -116 25 -68 29 -220 10 -305 -33 -141 -82
-175 -249 -175 l-107 0 0 305 0 305 105 0 c68 0 117 -5 138 -14z"/>
<path d="M6932 1208 c-58 -183 -207 -656 -222 -700 l-19 -58 43 0 43 0 35 118
34 117 140 3 140 3 39 -121 38 -120 43 0 c24 0 44 3 44 8 0 4 -58 180 -128
392 l-129 385 -45 3 c-44 3 -47 2 -56 -30z m112 -251 l52 -172 -104 -3 c-58
-1 -107 -1 -109 2 -3 3 11 56 30 118 20 62 44 144 53 183 10 38 20 63 22 56 2
-7 28 -90 56 -184z"/>
<path d="M7370 845 l0 -397 158 3 c148 4 160 6 213 32 63 30 97 72 131 158 26
66 37 266 19 348 -15 72 -59 157 -96 188 -57 49 -89 56 -262 61 l-163 4 0
-397z m323 291 c44 -19 83 -63 103 -116 25 -68 29 -220 10 -305 -33 -141 -82
-175 -249 -175 l-107 0 0 305 0 305 105 0 c68 0 117 -5 138 -14z"/>
<path d="M8280 845 l0 -397 158 3 c148 4 160 6 213 32 63 30 97 72 131 158 26
66 37 266 19 348 -15 72 -59 157 -96 188 -57 49 -89 56 -262 61 l-163 4 0
-397z m323 291 c44 -19 83 -63 103 -116 25 -68 29 -220 10 -305 -33 -141 -82
-175 -249 -175 l-107 0 0 305 0 305 105 0 c68 0 117 -5 138 -14z"/>
<path d="M8940 845 l0 -395 245 0 245 0 0 45 0 45 -200 0 -200 0 0 135 0 135
180 0 180 0 0 45 0 45 -180 0 -180 0 0 125 0 125 190 0 190 0 0 45 0 45 -235
0 -235 0 0 -395z"/>
<path d="M9800 845 l0 -395 40 0 40 0 0 185 0 185 175 0 175 0 0 -185 0 -185
40 0 40 0 0 395 0 395 -40 0 -40 0 0 -165 0 -165 -175 0 -175 0 0 165 0 165
-40 0 -40 0 0 -395z"/>
<path d="M11160 845 l0 -395 40 0 40 0 2 310 3 309 170 -309 170 -310 42 0 43
0 0 395 0 395 -40 0 -40 0 -2 -311 -3 -310 -170 310 -170 311 -42 0 -43 0 0
-395z"/>
<path d="M11820 845 l0 -397 158 3 c148 4 160 6 213 32 63 30 97 72 131 158
26 66 37 266 19 348 -15 72 -59 157 -96 188 -57 49 -89 56 -262 61 l-163 4 0
-397z m323 291 c44 -19 83 -63 103 -116 25 -68 29 -220 10 -305 -33 -141 -82
-175 -249 -175 l-107 0 0 305 0 305 105 0 c68 0 117 -5 138 -14z"/>
<path d="M12482 948 c5 -319 12 -366 65 -428 44 -53 97 -74 188 -74 144 0 217
62 244 209 6 33 11 174 11 322 l0 263 -40 0 -40 0 0 -252 c0 -139 -5 -280 -11
-315 -19 -107 -75 -150 -184 -141 -68 6 -102 28 -128 86 -20 44 -21 68 -25
335 l-4 287 -40 0 -40 0 4 -292z"/>
<path d="M13140 845 l0 -395 40 0 40 0 0 175 0 175 75 0 c122 0 134 -11 247
-225 l64 -120 53 -3 53 -3 -68 133 c-45 87 -85 148 -115 179 l-46 47 41 12
c119 36 172 202 103 324 -47 83 -88 95 -324 96 l-163 0 0 -395z m370 290 c43
-22 60 -53 60 -108 0 -111 -43 -137 -224 -137 l-126 0 0 130 0 130 130 0 c97
0 139 -4 160 -15z"/>
<path d="M13962 1208 c-58 -183 -207 -656 -222 -700 l-19 -58 43 0 43 0 35
118 34 117 140 3 140 3 39 -121 38 -120 43 0 c24 0 44 3 44 8 0 4 -58 180
-128 392 l-129 385 -45 3 c-44 3 -47 2 -56 -30z m112 -251 l52 -172 -104 -3
c-58 -1 -107 -1 -109 2 -3 3 11 56 30 118 20 62 44 144 53 183 10 38 20 63 22
56 2 -7 28 -90 56 -184z"/>
<path d="M16220 845 l0 -395 40 0 40 0 0 159 0 159 128 4 c110 3 134 7 177 28
41 21 55 35 78 79 22 45 27 67 27 130 -1 127 -49 198 -150 220 -28 6 -116 11
-195 11 l-145 0 0 -395z m349 290 c55 -28 80 -140 46 -206 -30 -56 -66 -69
-197 -69 l-118 0 0 145 0 145 120 0 c86 0 129 -4 149 -15z"/>
<path d="M16830 845 l0 -397 158 3 c148 4 160 6 213 32 63 30 97 72 131 158
26 66 37 266 19 348 -15 72 -59 157 -96 188 -57 49 -89 56 -262 61 l-163 4 0
-397z m323 291 c44 -19 83 -63 103 -116 25 -68 29 -220 10 -305 -33 -141 -82
-175 -249 -175 l-107 0 0 305 0 305 105 0 c68 0 117 -5 138 -14z"/>
<path d="M17500 845 l0 -395 40 0 40 0 0 180 0 180 155 0 155 0 0 45 0 45
-155 0 -155 0 0 125 0 125 175 0 175 0 0 45 0 45 -215 0 -215 0 0 -395z"/>
<path d="M15020 505 c0 -52 1 -55 25 -55 18 0 25 -5 25 -19 0 -29 -19 -74 -36
-87 -18 -14 -7 -46 14 -42 8 2 24 16 36 31 17 23 22 46 24 128 l4 99 -46 0
-46 0 0 -55z"/>
</g>
</svg>
