<?xml version="1.0" standalone="no"?>
<!DOCTYPE svg PUBLIC "-//W3C//DTD SVG 20010904//EN"
 "http://www.w3.org/TR/2001/REC-SVG-20010904/DTD/svg10.dtd">
<svg version="1.0" xmlns="http://www.w3.org/2000/svg"
 width="1798.000000pt" height="242.000000pt" viewBox="0 0 1798.000000 242.000000"
 preserveAspectRatio="xMidYMid meet">

<g transform="translate(0.000000,242.000000) scale(0.100000,-0.100000)"
fill="#000000" stroke="none">
<path d="M19 2404 c-12 -14 -14 -210 -17 -1181 l-2 -1164 29 -30 29 -29 882 0
882 0 29 29 29 29 0 1154 c0 909 -3 1158 -13 1178 l-13 25 -911 3 c-838 2
-912 1 -924 -14z m1813 -11 c17 -15 18 -65 18 -1178 0 -890 -3 -1164 -12
-1173 -17 -17 -1779 -17 -1796 0 -9 9 -12 283 -12 1172 0 1065 1 1161 17 1178
15 17 56 18 891 18 801 0 877 -1 894 -17z"/>
<path d="M129 2311 l-24 -19 0 -1050 c0 -1018 1 -1051 19 -1071 l19 -21 813 0
813 0 15 22 c14 20 16 138 16 1069 l0 1048 -26 20 c-27 21 -33 21 -824 21
-771 0 -799 -1 -821 -19z m1641 -30 c7 -13 10 -357 10 -1043 0 -910 -2 -1026
-16 -1046 l-15 -22 -794 0 c-708 0 -795 2 -809 16 -14 14 -16 123 -16 1053 0
793 3 1040 12 1049 9 9 204 12 815 12 783 0 803 0 813 -19z"/>
<path d="M1008 2217 c-40 -20 -78 -31 -124 -35 -61 -5 -65 -6 -59 -26 63 -190
80 -338 72 -635 -4 -129 -9 -237 -13 -240 -3 -3 -163 -7 -355 -9 -192 -2 -349
-5 -349 -8 0 -3 15 -23 33 -46 30 -37 32 -45 32 -114 0 -41 1 -74 2 -74 1 0
42 17 90 39 165 72 345 122 494 138 l59 6 0 -29 c-1 -206 -37 -561 -76 -744
-13 -63 -24 -118 -24 -122 0 -5 13 -8 29 -8 40 0 109 -26 148 -56 19 -14 36
-24 38 -22 3 2 -4 47 -15 99 -37 186 -53 474 -42 773 l4 119 206 -6 c182 -5
312 -19 506 -53 l38 -7 -18 29 c-15 22 -19 47 -19 121 0 79 -2 92 -15 87 -79
-30 -230 -75 -283 -84 -37 -7 -142 -13 -234 -13 l-168 -2 -3 135 c-7 290 25
580 82 748 14 39 24 71 23 71 -1 -1 -28 -15 -59 -32z"/>
<path d="M437 2060 c-267 -67 -352 -396 -150 -580 168 -154 434 -97 528 113
57 124 32 266 -64 370 -71 77 -214 121 -314 97z m210 -51 c219 -104 236 -416
31 -545 -158 -100 -359 -42 -450 129 -19 35 -23 58 -23 137 0 86 3 100 29 148
63 113 184 177 311 164 22 -2 68 -17 102 -33z"/>
<path d="M603 1803 c-62 -192 -60 -173 -19 -173 l35 0 3 -62 c2 -50 6 -63 21
-66 15 -3 17 5 17 62 l0 66 34 0 c19 0 37 3 39 8 2 4 -17 71 -42 150 l-46 143
-42 -128z"/>
<path d="M342 1782 c-24 -75 -43 -140 -43 -144 1 -5 17 -8 36 -8 l35 0 0 -65
c0 -58 2 -65 20 -65 18 0 20 7 20 65 l0 65 35 0 c19 0 35 3 35 7 0 15 -85 283
-90 283 -3 0 -24 -62 -48 -138z"/>
<path d="M1275 1819 l-85 -70 0 -105 0 -104 -50 0 c-27 0 -50 -4 -50 -10 0 -6
108 -10 305 -10 197 0 305 4 305 10 0 6 -18 10 -40 10 l-40 0 0 90 0 90 30 0
c17 0 30 5 30 10 0 6 -36 10 -88 10 l-89 0 -72 74 -72 74 -84 -69z m152 -31
l63 -62 0 -93 0 -93 -140 0 -140 0 0 99 0 99 68 55 c37 31 71 56 77 56 5 1 38
-27 72 -61z m173 -158 l0 -90 -40 0 -40 0 0 90 0 90 40 0 40 0 0 -90z"/>
<path d="M1282 1683 l3 -68 58 -3 57 -3 0 71 0 70 -60 0 -61 0 3 -67z m96 0
c-3 -46 -4 -48 -33 -48 -29 0 -30 2 -33 48 l-3 47 36 0 36 0 -3 -47z"/>
<path d="M1297 1053 c-76 -110 -78 -114 -75 -195 l3 -72 45 0 45 -1 0 -55 0
-55 -72 -3 -73 -3 0 -59 0 -59 73 -3 c70 -3 72 -4 75 -30 2 -20 -4 -32 -27
-49 -25 -18 -31 -30 -31 -61 l0 -38 110 0 110 0 0 46 c0 41 -3 46 -30 55 -25
9 -30 16 -30 45 l0 34 65 0 65 0 0 -35 0 -35 53 0 c78 0 92 14 92 92 0 75 -26
127 -99 198 l-46 44 0 -72 0 -72 -65 0 -65 0 0 60 0 60 45 0 45 0 0 76 0 75
-70 95 c-38 52 -74 94 -79 94 -5 0 -34 -35 -64 -77z m132 -40 c60 -85 62 -90
59 -143 l-3 -55 -42 -3 -43 -3 0 -169 0 -169 31 -16 c22 -12 29 -22 27 -38 -3
-20 -9 -22 -90 -25 -86 -3 -88 -2 -88 20 0 16 10 30 30 42 l30 17 -2 167 -3
167 -44 5 -45 5 3 65 c2 60 6 71 54 142 29 43 55 77 58 78 3 0 34 -39 68 -87z
m227 -361 c19 -44 22 -116 4 -136 -9 -12 -25 -16 -49 -14 l-36 3 -3 109 c-4
141 1 152 40 106 16 -19 36 -50 44 -68z m-341 -42 l0 -35 -62 -3 -63 -3 0 41
0 41 63 -3 62 -3 0 -35z m235 0 l0 -40 -65 0 -65 0 0 40 0 40 65 0 65 0 0 -40z"/>
<path d="M559 1044 c-53 -123 -52 -119 -34 -154 l17 -33 63 63 c38 38 61 68
57 75 -4 7 -24 31 -44 55 l-37 43 -22 -49z m61 -31 l21 -27 -46 -45 c-36 -36
-47 -43 -54 -32 -9 14 -7 22 23 94 19 44 28 46 56 10z"/>
<path d="M343 1003 c-18 -9 -33 -20 -33 -24 0 -4 34 -34 75 -66 62 -47 74 -61
68 -78 -11 -35 -5 -59 22 -78 24 -18 25 -22 24 -125 0 -79 -5 -117 -18 -147
l-18 -40 -17 36 c-9 20 -28 47 -42 60 -25 24 -26 24 -40 5 -8 -11 -14 -29 -14
-40 1 -30 34 -98 59 -121 19 -17 21 -26 16 -67 -10 -70 1 -76 49 -30 22 21 58
49 78 61 87 52 119 123 100 224 -8 39 -7 47 5 47 8 0 28 13 44 29 35 35 40 85
9 101 -19 10 -19 11 5 47 17 24 25 50 25 79 0 77 -4 78 -88 23 -42 -28 -78
-52 -80 -53 -1 -2 21 -19 50 -37 l53 -34 -57 -9 c-79 -11 -86 -35 -29 -88 22
-21 41 -43 41 -49 0 -19 -85 -159 -95 -156 -6 2 -11 60 -13 139 -2 124 -1 136
18 153 43 39 16 99 -44 97 -27 -1 -36 3 -36 15 0 9 -5 45 -11 80 -11 62 -12
63 -43 62 -17 0 -46 -8 -63 -16z m81 -25 c3 -13 6 -34 6 -47 l0 -23 -37 28
c-21 15 -40 29 -43 32 -8 6 32 32 51 32 9 0 19 -10 23 -22z m294 -113 c-3 -25
-11 -52 -18 -60 -10 -12 -16 -11 -46 8 -18 12 -34 27 -34 32 1 10 77 62 94 64
5 1 6 -19 4 -44z m-183 -45 c8 -27 -12 -52 -39 -48 -21 3 -32 28 -22 54 8 22
54 18 61 -6z m144 -81 c35 -12 39 -33 15 -67 -21 -30 -33 -28 -82 14 -58 49
-57 52 24 63 6 0 25 -4 43 -10z m-43 -243 c-7 -46 -41 -97 -77 -117 -32 -17
-23 28 22 110 46 82 66 85 55 7z m-200 -43 c8 -29 -2 -56 -17 -47 -19 11 -50
91 -42 110 6 15 9 14 30 -12 13 -16 26 -39 29 -51z m78 -9 c11 -41 -4 -90 -35
-120 -16 -15 -31 -26 -33 -23 -6 6 46 169 55 169 4 0 10 -12 13 -26z"/>
<path d="M275 862 c-9 -10 -5 -152 5 -152 15 0 124 42 138 53 29 23 8 48 -65
77 -40 15 -75 25 -78 22z m89 -52 c25 -10 46 -22 46 -25 0 -6 -87 -45 -101
-45 -5 0 -9 20 -9 45 0 25 4 45 9 45 5 0 30 -9 55 -20z"/>
<path d="M382 687 c-29 -29 -52 -55 -52 -58 0 -7 73 -59 82 -59 6 0 56 109 58
130 8 57 -23 53 -88 -13z m47 -37 c-22 -51 -34 -57 -53 -27 -9 13 -3 24 29 57
22 22 41 36 43 31 2 -5 -7 -33 -19 -61z"/>
</g>
</svg>
